<?xml version="1.0" encoding="UTF-8" standalone="no"?>
<!DOCTYPE svg PUBLIC "-//W3C//DTD SVG 1.1//EN" "http://www.w3.org/Graphics/SVG/1.1/DTD/svg11.dtd">
<svg width="100%" height="100%" viewBox="0 0 598 595" version="1.1" xmlns="http://www.w3.org/2000/svg" xmlns:xlink="http://www.w3.org/1999/xlink" xml:space="preserve" xmlns:serif="http://www.serif.com/" style="fill-rule:evenodd;clip-rule:evenodd;stroke-linejoin:round;stroke-miterlimit:2;">
    <g transform="matrix(1,0,0,1,-318,-118)">
        <g transform="matrix(4.16667,0,0,4.16667,0,0)">
            <path d="M142.183,47.129L148.167,42.762L154.152,47.129L151.875,40.067L157.953,35.7L150.46,35.7L148.167,28.551L145.874,35.707L138.386,35.7L144.46,40.067L142.183,47.129Z" style="fill:white;fill-rule:nonzero;"/>
            <path d="M111.214,55.45L117.198,51.082L123.179,55.45L120.905,48.387L126.98,44.02L119.487,44.02L117.194,36.864L114.901,44.028L107.413,44.02L113.487,48.387L111.214,55.45Z" style="fill:white;fill-rule:nonzero;"/>
            <path d="M94.538,59.575L92.245,66.739L84.757,66.731L90.831,71.098L88.554,78.161L94.538,73.793L100.522,78.161L98.245,71.098L104.319,66.731L96.831,66.731L94.538,59.575Z" style="fill:white;fill-rule:nonzero;"/>
            <path d="M86.226,104.723L92.206,109.09L89.933,102.028L96.007,97.661L88.519,97.661L86.226,90.504L83.933,97.676L76.44,97.661L82.519,102.028L80.241,109.09L86.226,104.723Z" style="fill:white;fill-rule:nonzero;"/>
            <path d="M96.831,128.684L94.538,121.528L92.245,128.692L84.757,128.684L90.831,133.051L88.554,140.114L94.538,135.739L100.522,140.114L98.245,133.051L104.319,128.684L96.831,128.684Z" style="fill:white;fill-rule:nonzero;"/>
            <path d="M119.534,151.387L117.241,144.239L114.952,151.395L107.46,151.387L113.534,155.754L111.261,162.817L117.245,158.45L123.226,162.817L120.952,155.754L127.026,151.387L119.534,151.387Z" style="fill:white;fill-rule:nonzero;"/>
            <path d="M150.464,159.614L148.171,152.457L145.882,159.622L138.39,159.614L144.464,163.981L142.19,171.043L148.175,166.676L154.156,171.043L151.878,163.981L157.957,159.614L150.464,159.614Z" style="fill:white;fill-rule:nonzero;"/>
            <path d="M181.394,151.387L179.105,144.239L176.808,151.395L169.324,151.387L175.394,155.754L173.121,162.817L179.105,158.45L185.089,162.817L182.808,155.754L188.886,151.387L181.394,151.387Z" style="fill:white;fill-rule:nonzero;"/>
            <path d="M204.105,128.684L201.808,121.528L199.511,128.692L192.027,128.684L198.105,133.051L195.824,140.114L201.808,135.739L207.793,140.114L205.511,133.051L211.589,128.684L204.105,128.684Z" style="fill:white;fill-rule:nonzero;"/>
            <path d="M219.816,97.575L212.324,97.575L210.027,90.418L207.738,97.582L200.246,97.575L206.324,101.942L204.05,109.004L210.027,104.629L216.011,109.004L213.738,101.942L219.816,97.575Z" style="fill:white;fill-rule:nonzero;"/>
            <path d="M195.824,78.067L201.808,73.7L207.793,78.067L205.511,71.004L211.589,66.645L204.105,66.645L201.808,59.489L199.511,66.653L192.027,66.645L198.105,71.004L195.824,78.067Z" style="fill:white;fill-rule:nonzero;"/>
            <path d="M179.191,36.872L176.902,44.036L169.41,44.02L175.48,48.395L173.207,55.457L179.199,51.082L185.175,55.457L182.902,48.395L188.98,44.02L181.48,44.02L179.191,36.872Z" style="fill:white;fill-rule:nonzero;"/>
        </g>
    </g>
</svg>
